<?xml version="1.0" standalone="no"?>
<!DOCTYPE svg PUBLIC "-//W3C//DTD SVG 20010904//EN"
 "http://www.w3.org/TR/2001/REC-SVG-20010904/DTD/svg10.dtd">
<svg version="1.0" xmlns="http://www.w3.org/2000/svg"
 width="160.000000pt" height="160.000000pt" viewBox="0 0 160.000000 160.000000"
 preserveAspectRatio="xMidYMid meet">

<g transform="translate(0.000000,160.000000) scale(0.100000,-0.100000)"
fill="#000000" stroke="none">
<path d="M48 1326 c-13 -30 -4 -56 22 -63 20 -5 20 -14 20 -574 0 -373 3 -569
10 -569 6 0 10 48 10 125 l0 124 42 -15 c23 -8 83 -19 134 -26 116 -14 245 -2
501 47 329 62 482 69 641 27 40 -10 74 -16 77 -14 8 8 5 876 -3 888 -4 5 -16
11 -27 11 -11 1 -58 9 -105 18 -141 29 -243 18 -692 -72 -171 -34 -408 -39
-500 -10 -61 18 -77 32 -59 50 16 16 14 43 -5 61 -23 23 -53 20 -66 -8z m46
-2 c13 -5 14 -9 5 -20 -20 -25 -60 -10 -44 16 7 12 17 12 39 4z m936 -139 c0
-9 11 -20 24 -24 46 -18 41 -65 -12 -98 -15 -9 -37 -26 -49 -36 -22 -20 -23
-20 -43 -2 -13 11 -18 25 -14 34 3 9 10 36 15 60 5 25 16 53 26 63 20 22 53
24 53 3z m-410 -85 c11 -11 20 -28 20 -38 0 -10 7 -28 16 -41 16 -22 15 -24
-10 -49 -20 -21 -28 -24 -38 -14 -7 7 -27 12 -45 12 -24 0 -37 7 -49 25 -17
26 -12 41 18 63 10 7 18 19 18 27 0 13 26 34 43 35 4 0 16 -9 27 -20z m284
-54 c71 -30 95 -108 62 -203 -24 -68 -23 -99 3 -127 16 -17 35 -26 54 -26 55
0 94 -65 47 -77 -11 -3 -20 -12 -20 -19 0 -16 -35 -54 -50 -54 -17 0 -50 43
-50 65 0 12 -15 36 -34 54 l-35 34 -18 -39 c-11 -22 -25 -38 -31 -36 -7 1 -12
-2 -12 -7 0 -16 -50 -9 -51 8 -1 13 -2 13 -6 -1 -5 -20 -28 -24 -38 -8 -3 6 2
11 12 11 15 1 15 2 2 6 -9 2 -21 15 -27 28 -7 14 -17 25 -24 25 -10 0 -10 -2
0 -8 9 -6 5 -18 -18 -48 -16 -21 -30 -52 -30 -67 0 -53 -43 -108 -71 -91 -5 3
-9 12 -9 20 0 8 -6 14 -14 14 -8 0 -22 10 -30 21 -20 29 -4 61 44 88 21 11 45
32 54 46 9 14 24 25 34 26 10 0 12 3 5 6 -7 2 -13 15 -13 28 0 12 -7 39 -15
58 -19 46 -19 120 -1 155 21 39 85 98 126 116 44 19 111 20 154 2z"/>
<path d="M843 870 c-18 -7 -23 -17 -23 -43 0 -40 15 -57 52 -57 51 0 69 82 22
100 -14 6 -26 10 -27 9 -1 0 -12 -4 -24 -9z"/>
<path d="M698 834 c-50 -27 -31 -116 22 -99 29 9 52 48 48 82 -4 33 -30 40
-70 17z"/>
<path d="M780 735 c-7 -8 -11 -17 -8 -20 8 -8 49 8 45 18 -6 18 -23 19 -37 2z"/>
<path d="M825 640 c-3 -6 1 -7 9 -4 18 7 21 14 7 14 -6 0 -13 -4 -16 -10z"/>
<path d="M785 630 c3 -5 8 -10 11 -10 2 0 4 5 4 10 0 6 -5 10 -11 10 -5 0 -7
-4 -4 -10z"/>
</g>
</svg>
